<svg aria-hidden="true" style="position: absolute; width: 0; height: 0; overflow: hidden;" version="1.1" xmlns="http://www.w3.org/2000/svg" xmlns:xlink="http://www.w3.org/1999/xlink">
<defs>
<symbol id="icon-down-1" viewBox="0 0 53 32">
<path fill="none" stroke="#3e4056" style="stroke: var(--color1, #3e4056)" stroke-linejoin="round" stroke-linecap="round" stroke-miterlimit="4" stroke-width="10.6667" d="M5.333 5.333l21.333 21.333 21.333-21.333"></path>
</symbol>
<symbol id="iconEdit" viewBox="0 0 32 32">
<path fill="#c3cadf" style="fill: var(--color2, #c3cadf)" opacity="0.01" d="M0 0h32v32h-32z"></path>
<path fill="none" stroke="#3e4056" style="stroke: var(--color1, #3e4056)" stroke-linejoin="miter" stroke-linecap="butt" stroke-miterlimit="4" stroke-width="3.2" d="M6.4 27.2c-1.767 0-3.2-1.433-3.2-3.2v0-19.2c0-1.767 1.433-3.2 3.2-3.2v0h16c1.767 0 3.2 1.433 3.2 3.2v0 1.6"></path>
<path fill="#3e4056" style="fill: var(--color1, #3e4056)" d="M9.6 6.4h9.6c0.884 0 1.6 0.716 1.6 1.6s-0.716 1.6-1.6 1.6h-9.6c-0.884 0-1.6-0.716-1.6-1.6s0.716-1.6 1.6-1.6z"></path>
<path fill="#3e4056" style="fill: var(--color1, #3e4056)" d="M8 14.4c0-0.884 0.716-1.6 1.6-1.6v0h6.4l-3.2 3.2h-3.2c-0.884 0-1.6-0.716-1.6-1.6v0zM22.229 11.085c0.579-0.579 1.379-0.938 2.263-0.938s1.684 0.358 2.263 0.938l4.525 4.525c0.579 0.579 0.938 1.379 0.938 2.263s-0.358 1.684-0.938 2.263l-11.11 11.109c-0.127 0.127-0.297 0.212-0.486 0.23l-0.003 0-5.944 0.56c-0.090 0.009-0.194 0.014-0.3 0.014-1.767 0-3.2-1.433-3.2-3.2 0-0.121 0.007-0.241 0.020-0.358l-0.001 0.014 0.63-5.827c0.021-0.189 0.105-0.355 0.23-0.48l11.114-11.114zM23.36 14.478c0.29-0.29 0.69-0.469 1.132-0.469s0.842 0.179 1.132 0.469v0l2.262 2.262c0.289 0.29 0.468 0.689 0.468 1.131s-0.179 0.842-0.468 1.131l-1.131 1.131-4.526-4.525 1.131-1.131zM19.968 17.872l-5.658 5.656-0.661 3.304c-0.020 0.095-0.031 0.203-0.031 0.314 0 0.884 0.716 1.6 1.6 1.6 0.111 0 0.22-0.011 0.325-0.033l-0.010 0.002 3.304-0.661 5.654-5.656-4.525-4.526z"></path>
</symbol>
<symbol id="icon-gift-1" viewBox="0 0 32 32">
<path fill="none" stroke="#3e4056" style="stroke: var(--color1, #3e4056)" stroke-linejoin="miter" stroke-linecap="butt" stroke-miterlimit="4" stroke-width="4" d="M8 10h16c2.209 0 4 1.791 4 4v12c0 2.209-1.791 4-4 4h-16c-2.209 0-4-1.791-4-4v-12c0-2.209 1.791-4 4-4z"></path>
<path fill="none" stroke="#3e4056" style="stroke: var(--color1, #3e4056)" stroke-linejoin="miter" stroke-linecap="butt" stroke-miterlimit="4" stroke-width="4" d="M8.848 10.942c2.164 0.788 6.094 0.312 6.85-1.764 0.756-2.074-1.95-4.966-4.112-5.752-2.164-0.788-4.528 0.256-5.284 2.332s0.384 4.398 2.546 5.184z"></path>
<path fill="none" stroke="#3e4056" style="stroke: var(--color1, #3e4056)" stroke-linejoin="miter" stroke-linecap="butt" stroke-miterlimit="4" stroke-width="4" d="M23.152 10.942c-2.164 0.788-6.094 0.312-6.85-1.764-0.756-2.074 1.95-4.966 4.112-5.752 2.164-0.788 4.528 0.256 5.284 2.332s-0.384 4.398-2.546 5.184z"></path>
<path fill="#3e4056" style="fill: var(--color1, #3e4056)" d="M14 10h4v20h-4z"></path>
<path fill="#fff" style="fill: var(--color3, #fff); stroke: var(--color1, #3e4056)" stroke="#3e4056" stroke-linejoin="miter" stroke-linecap="butt" stroke-miterlimit="4" stroke-width="8" d="M0 12c0-2.209 1.791-4 4-4v0h24c2.209 0 4 1.791 4 4v0 6c0 1.105-0.895 2-2 2v0h-28c-1.105 0-2-0.895-2-2v0-6z"></path>
</symbol>
<symbol id="icon-like-1" viewBox="0 0 37 32">
<path fill="#fb5f8a" style="fill: var(--color4, #fb5f8a)" d="M18.286 18.498c-1.874 2.656-4.782 4.359-8.046 4.359-5.655 0-10.24-5.118-10.24-11.429s4.585-11.429 10.24-11.429c3.264 0 6.171 1.703 8.046 4.359 1.874-2.656 4.782-4.359 8.046-4.359 5.655 0 10.24 5.118 10.24 11.429s-4.585 11.429-10.24 11.429c-3.264 0-6.171-1.703-8.046-4.359z"></path>
<path fill="#fc719f" style="fill: var(--color5, #fc719f)" d="M0 0h36.571v36.571h-36.571z"></path>
<path fill="#ed5267" style="fill: var(--color6, #ed5267)" d="M0 0h36.571v36.571h-36.571z"></path>
</symbol>
<symbol id="icon-m-1" viewBox="0 0 39 32">
<path fill="#3e3f58" style="fill: var(--color7, #3e3f58)" d="M4.67 6.528c0.005-0.048 0.008-0.104 0.008-0.161 0-0.456-0.193-0.867-0.502-1.155l-0.001-0.001-3.678-4.534v-0.677h11.417l8.827 19.81 7.759-19.81h10.885v0.677l-3.143 3.089c-0.221 0.176-0.362 0.445-0.362 0.746 0 0.055 0.005 0.108 0.013 0.16l-0.001-0.006v22.671c-0.008 0.047-0.013 0.101-0.013 0.157 0 0.302 0.141 0.571 0.361 0.745l0.002 0.002 3.070 3.084v0.674h-15.444v-0.677l3.18-3.161c0.313-0.32 0.313-0.414 0.313-0.903v-18.324l-8.844 22.991h-1.196l-10.297-22.991v15.409c-0.012 0.086-0.019 0.185-0.019 0.285 0 0.575 0.225 1.097 0.591 1.483l-0.001-0.001 4.135 5.135v0.677h-11.729v-0.677l4.135-5.135c0.443-0.468 0.64-1.125 0.534-1.77v-17.814z"></path>
</symbol>
<symbol id="icon-Oval-1" viewBox="0 0 32 32">
<path fill="#b2b3bb" style="fill: var(--color8, #b2b3bb)" d="M16 32c8.836 0 16-7.164 16-16s-7.164-16-16-16-16 7.164-16 16 7.164 16 16 16z"></path>
</symbol>
<symbol id="icon-pen-1" viewBox="0 0 32 32">
<path fill="#f05d63" style="fill: var(--color9, #f05d63)" d="M16.845 3.019l-14.829 14.827c-0.166 0.167-0.278 0.388-0.305 0.64l-0.845 7.77 0.002-0.019c-0.018 0.157-0.027 0.318-0.027 0.48 0 2.356 1.91 4.267 4.267 4.267 0.141 0 0.28-0.007 0.4-0.019l7.932-0.747c0.253-0.024 0.48-0.137 0.651-0.307l14.822-14.825c0.772-0.772 1.249-1.839 1.249-3.017s-0.477-2.244-1.249-3.017l-6.033-6.035c-0.772-0.772-1.839-1.25-3.018-1.25s-2.245 0.478-3.018 1.25zM18.353 7.543c0.386-0.386 0.919-0.625 1.508-0.625s1.122 0.239 1.508 0.625v0l3.017 3.019c0.386 0.386 0.625 0.919 0.625 1.508s-0.239 1.122-0.625 1.508l-1.51 1.51-6.033-6.035-3.019 3.021 6.033 6.035-7.546 7.546-4.405 0.881c-0.126 0.026-0.271 0.042-0.419 0.042-1.178 0-2.133-0.955-2.133-2.133 0-0.148 0.015-0.293 0.044-0.433l-0.002 0.014 0.883-4.405 12.075-12.075z"></path>
</symbol>
<symbol id="icon-plas-1" viewBox="0 0 32 32">
<path fill="#fff" style="fill: var(--color3, #fff)" d="M17.456 0h-2.912v14.544h-14.544v2.912h14.544v14.544h2.912v-14.544h14.544v-2.912h-14.544v-14.544z"></path>
</symbol>
<symbol id="icon-play-1" viewBox="0 0 32 32">
<path fill="#ecf1f8" style="fill: var(--color10, #ecf1f8)" opacity="0.01" d="M0 0h32v32h-32z"></path>
<path fill="#3e4056" style="fill: var(--color1, #3e4056)" d="M30 16c-0.024 1.483-0.744 2.792-1.846 3.619l-0.012 0.009-12.222 9.364c-1.464 1.108-3.46 1.32-5.14 0.55-1.684-0.772-2.762-2.392-2.78-4.18v-18.724c0.018-1.786 1.096-3.406 2.78-4.178 0.618-0.29 1.343-0.459 2.106-0.459 1.144 0 2.199 0.379 3.046 1.018l-0.013-0.009 12.222 9.364c1.16 0.878 1.844 2.212 1.858 3.628z"></path>
<path fill="#3e4056" style="fill: var(--color1, #3e4056)" d="M0 0h32v32h-32z"></path>
</symbol>
<symbol id="icon-red-oval-1" viewBox="0 0 53 32">
<path fill="#ed5267" style="fill: var(--color6, #ed5267); stroke: var(--color6, #ed5267)" stroke="#ed5267" stroke-linejoin="round" stroke-linecap="round" stroke-miterlimit="4" stroke-width="1.3333" d="M36.713 0.76v0c1.624 0.093 3.184 0.285 4.725 0.712v0c3.24 0.893 6.063 2.757 8.103 5.397v0c1.947 2.495 3.123 5.676 3.125 9.13v0.001c0 3.299-1.097 6.507-3.125 9.131v0c-2.040 2.639-4.863 4.504-8.101 5.397v0c-1.543 0.427-3.101 0.619-4.727 0.712 0 0 0 0 0 0l0.037 0.665c-1.667 0.093-3.332 0.093-5.024 0.093l-0.467 0.001 5.453-31.24zM36.713 0.76c-1.675-0.093-3.349-0.093-5.047-0.093h-9.592v-0.667M36.713 0.76l-14.64-0.76M22.073 0v0.667h-0.38c-1.725 0-3.4 0-5.073 0.093v0c-1.627 0.093-3.185 0.285-4.727 0.712v0c-3.24 0.893-6.063 2.757-8.101 5.397v0c-1.947 2.495-3.123 5.675-3.125 9.13v0.001c0 3.3 1.097 6.508 3.124 9.132v0c2.040 2.639 4.863 4.504 8.103 5.397v0c1.541 0.427 3.101 0.619 4.727 0.712 0 0 0 0 0 0l-0.037 0.665 5.491-31.907z"></path>
<path fill="#fff" style="fill: var(--color3, #fff)" d="M37.333 28c-6.627 0-12-5.373-12-12s5.373-12 12-12v0c6.627 0 12 5.373 12 12s-5.373 12-12 12v0z"></path>
</symbol>
<symbol id="icon-bell-1" viewBox="0 0 28 32">
<path fill="#3e4056" style="fill: var(--color1, #3e4056)" d="M17.294 28.8h4v-4h-4v4zM10.706 28.8v-4h-4v4h4zM12.426 7.386v0zM14 7.024l0.898-3.9-0.898-0.204-0.898 0.206 0.898 3.898zM7.294 23.2h-4v4h4v-4zM23.928 23.2v4h1.692l1.178-1.212-2.87-2.788zM25.528 23.2h0.002zM28 25.6h4v-1.692l-1.212-1.178-2.788 2.87zM28 27.2v4h4v-4h-4zM0 27.2h-4v4h4v-4zM0 25.6l-2.788-2.87-1.212 1.18v1.69h4zM2.47 23.2v0zM3.294 22.4l2.788 2.87 1.212-1.18v-1.69h-4zM11.53 3.488l0.896 3.898 3.104-0.714v-3.184h-4zM16.47 3.488h-4v3.184l3.104 0.714 0.896-3.898zM20.706 22.4h-4v4h4v-4zM15.574 7.386v0zM14 36c3.91 0 7.294-3.122 7.294-7.2h-8c0-0.558 0.42-0.8 0.706-0.8v8zM6.706 28.8c0 4.078 3.384 7.2 7.294 7.2v-8c0.288 0 0.706 0.242 0.706 0.8h-8zM13.294 24.8h-2.588v8h2.588v-8zM14 24.8h-0.706v8h0.706v-8zM14.706 24.8h-0.706v8h0.706v-8zM17.294 24.8h-2.588v8h2.588v-8zM13.324 11.284l1.574-0.362-1.796-7.796-1.572 0.362 1.794 7.796zM11.294 13.6c0-0.96 0.71-2.012 2.030-2.316l-1.794-7.796c-4.742 1.092-8.236 5.216-8.236 10.112h8zM11.294 22.4v-8.8h-8v8.8h8zM11.294 23.2v-0.8h-8v0.8h8zM23.928 19.2h-16.634v8h16.634v-8zM21.836 19.612l-0.776 0.8 5.738 5.576 0.778-0.8-5.74-5.576zM28.316 20.332l-0.824-0.8-5.574 5.738 0.824 0.8 5.574-5.74zM30.788 22.732l-2.472-2.4-5.574 5.738 2.47 2.4 5.576-5.74zM32 27.2v-1.6h-8v1.6h8zM26.446 31.2h1.554v-8h-1.554v8zM24 31.2h2.446v-8h-2.446v8zM23.906 31.2h0.094v-8h-0.094v8zM4.094 31.2h19.812v-8h-19.812v8zM4 31.2h0.094v-8h-0.094v8zM1.554 31.2h2.446v-8h-2.446v8zM0 31.2h1.554v-8h-1.554v8zM-4 25.6v1.6h8v-1.6h-8zM-0.316 20.33l-2.472 2.4 5.576 5.74 2.47-2.4-5.574-5.74zM0.506 19.53l-0.822 0.8 5.574 5.74 0.824-0.8-5.576-5.74zM-0.706 13.6v8.8h8v-8.8h-8zM10.634-0.41c-6.426 1.48-11.342 7.114-11.342 14.010h8c0-2.928 2.1-5.516 5.132-6.214l-1.792-7.796zM7.528 2.4v1.088h8v-1.088h-8zM14-4c-3.466 0-6.47 2.754-6.47 6.4h8c0 0.99-0.798 1.6-1.53 1.6v-8zM20.47 2.4c0-3.646-3.004-6.4-6.47-6.4v8c-0.85-0.021-1.53-0.715-1.53-1.568 0-0.011 0-0.023 0-0.034l-0 0.002h8zM20.47 3.488v-1.088h-8v1.088h8zM28.706 13.6c0-6.896-4.916-12.532-11.34-14.010l-1.792 7.796c3.030 0.698 5.132 3.286 5.132 6.214h8zM28.706 22.4v-8.8h-8v8.8h8zM20.706 26.4h4v-8h-4v8zM16.706 13.6v8.8h8v-8.8h-8zM14.676 11.284c1.32 0.304 2.030 1.356 2.030 2.316h8c0-4.896-3.492-9.020-8.236-10.112l-1.794 7.796zM13.102 10.922l1.574 0.362 1.794-7.796-1.572-0.362-1.798 7.794z"></path>
</symbol>
<symbol id="icon-delete-1" viewBox="0 0 32 32">
<path fill="none" stroke="#3e4056" style="stroke: var(--color1, #3e4056)" stroke-linejoin="miter" stroke-linecap="butt" stroke-miterlimit="4" stroke-width="4" d="M25.9 25.9c-2.534 2.534-6.034 4.101-9.9 4.101-7.732 0-14.001-6.268-14.001-14.001 0-3.866 1.567-7.366 4.101-9.9v0c2.534-2.534 6.034-4.101 9.9-4.101 7.732 0 14.001 6.268 14.001 14.001 0 3.866-1.567 7.366-4.101 9.9v0zM10 22l12-12M22 22l-12-12"></path>
</symbol>
<symbol id="icon-dots-1" viewBox="0 0 32 32">
<path fill="#ecf1f8" style="fill: var(--color10, #ecf1f8)" opacity="0.01" d="M0 0h32v32h-32z"></path>
<path fill="#3e4056" style="fill: var(--color1, #3e4056)" d="M16 12c4.418 0 8-3.582 8-8v0h-8v8zM8 4c0 4.418 3.582 8 8 8v0-8h-8zM16-4c-4.418 0-8 3.582-8 8v0h8v-8zM24 4c0-4.418-3.582-8-8-8v0 8h8zM16 24c4.418 0 8-3.582 8-8v0h-8v8zM8 16c0 4.418 3.582 8 8 8v0-8h-8zM16 8c-4.418 0-8 3.582-8 8v0h8v-8zM24 16c0-4.418-3.582-8-8-8v0 8h8zM16 28v8c4.418 0 8-3.582 8-8v0h-8zM16 28h8c0-4.418-3.582-8-8-8v0 8zM16 28v-8c-4.418 0-8 3.582-8 8v0h8zM16 28h-8c0 4.418 3.582 8 8 8v0-8z"></path>
<path fill="#3e4056" style="fill: var(--color1, #3e4056)" d="M-8-8h48v48h-48z"></path>
</symbol>
</defs>
</svg>
